<?xml version="1.0" encoding="utf-8" ?>
<svg baseProfile="full" height="1080" version="1.1" width="750" xmlns="http://www.w3.org/2000/svg" xmlns:ev="http://www.w3.org/2001/xml-events" xmlns:xlink="http://www.w3.org/1999/xlink"><defs><pattern height="16" id="dotPattern" patternUnits="userSpaceOnUse" width="16"><circle cx="8" cy="8" fill="#e0e0e0" r="1.5" /></pattern><pattern height="40" id="linen" patternUnits="userSpaceOnUse" width="40"><rect fill="none" height="40" width="40" x="0" y="0" /><line stroke="#eee" stroke-width="0.5" x1="0" x2="40" y1="0" y2="40" /><line stroke="#eee" stroke-width="0.5" x1="40" x2="0" y1="0" y2="40" /></pattern><linearGradient id="headerGradient" x1="0" x2="0" y1="0" y2="1"><stop offset="0" stop-color="#444" /><stop offset="1" stop-color="#555" /></linearGradient><linearGradient id="footerGradient" x1="0" x2="0" y1="0" y2="1"><stop offset="0" stop-color="#444" /><stop offset="1" stop-color="#555" /></linearGradient><linearGradient id="headerGloss" x1="0" x2="0" y1="0" y2="1"><stop offset="0" stop-color="#fff" stop-opacity="0.25" /><stop offset="0.6" stop-color="#fff" stop-opacity="0" /></linearGradient></defs><rect fill="none" height="1078" stroke="#ccc" stroke-width="2" width="748" x="1" y="1" /><rect fill="url(#dotPattern)" height="1080" width="750" x="0" y="0" /><rect fill="url(#linen)" height="1080" opacity="0.1" width="750" x="0" y="0" /><rect fill="url(#headerGradient)" height="135" width="750" x="0" y="0" /><rect fill="url(#footerGradient)" height="105" width="750" x="0" y="975" /><rect fill="url(#headerGloss)" height="40" width="750" x="0" y="0" /><rect fill="#e0e0e0" height="840" width="4" x="0" y="135" /><rect fill="#e0e0e0" height="840" width="4" x="746" y="135" /><g transform="translate(375,540) scale(1.71) translate(-175,-174)"><path d="M 62 52.21 a 167.2 167.2 0 0 0 -27 32.24 l 140 154.37 L 314.47 84 a 166.25 166.25 0 0 0 -27.54 -32.22 L 211 112.24 l -18.14 -38.43 s 4.46 -13.61 20.25 -6.75 c 0 0 4.12 -15.06 -20.24 -15.06 H 172 s -7.32 -1.17 -13.11 11 l -23.33 48.82 L 61.3 53.53" fill="#222" fill-opacity="0.04" /><path d="M 76 306.78 a 167.08 167.08 0 0 0 195.41 1.93 l -64.62 -98 -32 35.41 -33.61 -35.41 z M 326.22 242.69 A 163.62 163.62 0 0 0 341 183.34 L 281.7 131 l -27.1 33.49 z M 341.14 178.16 c 0 -1.39 .11 -2.77 .11 -4.16 a 163.83 163.83 0 0 0 -24.49 -86.4 l -32.55 40.26 z M 252.06 167.63 l -27.32 33.8 68.79 88.48 a 165.78 165.78 0 0 0 30.84 -43.32 z M 21.77 242.69 A 163.62 163.62 0 0 1 7 183.34 L 66.29 131 l 27.09 33.52 z M 6.85 178.16 c 0 -1.39 -.11 -2.77 -.11 -4.16 a 163.83 163.83 0 0 1 24.49 -86.4 l 32.55 40.26 z M 95.93 167.63 l 27.32 33.8 -68.79 88.48 a 165.78 165.78 0 0 1 -30.84 -43.32 z" fill="#222" fill-opacity="0.04" /></g><text alignment-baseline="middle" fill="#fff" font-family="Arial, Helvetica, sans-serif" font-size="42" font-weight="bold" letter-spacing="6" text-anchor="middle" x="375.0" y="77.5">COPY POWER</text><text fill="#222" font-family="Arial, Helvetica, sans-serif" font-size="23" font-style="italic" style="font-style:italic;" text-anchor="middle" x="375.0" y="180">The character duplicates another character’s</text><text fill="#222" font-family="Arial, Helvetica, sans-serif" font-size="23" font-style="italic" style="font-style:italic;" text-anchor="middle" x="375.0" y="209">power.</text><text fill="#223355" font-family="Arial, Helvetica, sans-serif" font-size="23" font-weight="bold" x="45" y="250">Power Set:</text><text fill="#222" font-family="Arial, Helvetica, sans-serif" font-size="23" x="255" y="250">Power Control</text><text fill="#223355" font-family="Arial, Helvetica, sans-serif" font-size="23" font-weight="bold" x="45" y="296">Action:</text><text fill="#222" font-family="Arial, Helvetica, sans-serif" font-size="23" x="255" y="296">Standard</text><text fill="#223355" font-family="Arial, Helvetica, sans-serif" font-size="23" font-weight="bold" x="45" y="342">Duration:</text><text fill="#222" font-family="Arial, Helvetica, sans-serif" font-size="23" x="255" y="342">Concentration</text><text fill="#223355" font-family="Arial, Helvetica, sans-serif" font-size="23" font-weight="bold" x="45" y="388">Cost:</text><text fill="#222" font-family="Arial, Helvetica, sans-serif" font-size="23" x="255" y="388">5 Focus</text><text fill="#223355" font-family="Arial, Helvetica, sans-serif" font-size="23" font-weight="bold" x="45" y="434">Effect:</text><text fill="#222" font-family="Arial, Helvetica, sans-serif" font-size="23" x="255" y="434">The character picks one power a</text><text fill="#222" font-family="Arial, Helvetica, sans-serif" font-size="23" x="255" y="460">target within 10 spaces has and</text><text fill="#222" font-family="Arial, Helvetica, sans-serif" font-size="23" x="255" y="486">duplicates it. They can now use it</text><text fill="#222" font-family="Arial, Helvetica, sans-serif" font-size="23" x="255" y="512">as if it was always theirs. When</text><text fill="#222" font-family="Arial, Helvetica, sans-serif" font-size="23" x="255" y="538">the character uses such a power,</text><text fill="#222" font-family="Arial, Helvetica, sans-serif" font-size="23" x="255" y="564">they must pay any cost normally as</text><text fill="#222" font-family="Arial, Helvetica, sans-serif" font-size="23" x="255" y="590">well.</text><text fill="#223355" font-family="Arial, Helvetica, sans-serif" font-size="23" font-weight="bold" x="45" y="636">Prerequisites:</text><text fill="#222" font-family="Arial, Helvetica, sans-serif" font-size="23" x="255" y="636">Rank 2</text><text alignment-baseline="middle" fill="#fff" font-family="Arial, Helvetica, sans-serif" font-size="36" font-weight="bold" letter-spacing="6" text-anchor="middle" x="375.0" y="1037.5">POWER</text><rect fill="#c00" height="6" rx="3" width="200" x="275.0" y="1060" /></svg>